<?xml version="1.0" encoding="utf-8"?>
<!-- Generator: Adobe Illustrator 20.0.0, SVG Export Plug-In . SVG Version: 6.00 Build 0)  -->
<svg version="1.1" id="Layer_1" xmlns="http://www.w3.org/2000/svg" xmlns:xlink="http://www.w3.org/1999/xlink" x="0px" y="0px"
	 viewBox="0 0 32 32" style="enable-background:new 0 0 32 32;" xml:space="preserve">
<style type="text/css">
	.st0{fill:#212121;}
</style>
<path class="st0" d="M21.3,11.7c-0.5-0.2-1-0.5-1.5-0.6c-1.2-0.4-2.5-0.6-3.8-0.6c-4.7,0-8.5,2.5-8.5,5.5c0,1.7,1.2,3.3,3.2,4.3
	c0.5,0.3,1,0.5,1.5,0.6c1.1,0.4,2.5,0.6,3.8,0.6c4.7,0,8.5-2.5,8.5-5.5C24.5,14.3,23.3,12.7,21.3,11.7z M16,20
	c-0.8,0-1.6-0.3-2.3-0.7c-0.4-0.3-0.8-0.6-1.1-1.1C12.2,17.6,12,16.8,12,16c0-2.2,1.8-4,4-4c0.8,0,1.6,0.3,2.3,0.7
	c0.4,0.3,0.8,0.6,1.1,1.1c0.5,0.7,0.7,1.4,0.7,2.3C20,18.2,18.2,20,16,20z"/>
<path class="st0" d="M18.5,16c0,1.4-1.1,2.5-2.5,2.5c-0.4,0-0.8-0.1-1.1-0.3c-0.5-0.2-0.8-0.6-1-1.1c-0.2-0.3-0.3-0.7-0.3-1.1
	c0-1.4,1.1-2.5,2.5-2.5c0.4,0,0.8,0.1,1.1,0.3c0.5,0.2,0.8,0.6,1.1,1C18.4,15.2,18.5,15.6,18.5,16z"/>
<g>
	<path class="st0" d="M11.1,21.9L7,26c-0.2,0.1-0.3,0.2-0.5,0.2S6.1,26.1,5.9,26c-0.3-0.3-0.3-0.8,0-1.1l3.7-3.7
		C10.1,21.5,10.6,21.7,11.1,21.9z"/>
	<path class="st0" d="M26,7.1l-3.7,3.7c-0.5-0.2-1-0.5-1.5-0.6L25,6c0.3-0.3,0.8-0.3,1.1,0C26.3,6.3,26.3,6.8,26,7.1z"/>
</g>
</svg>
