<?xml version="1.0" encoding="utf-8"?>
<!-- Generator: Adobe Illustrator 20.0.0, SVG Export Plug-In . SVG Version: 6.00 Build 0)  -->
<svg version="1.1" id="Layer_1"
	xmlns="http://www.w3.org/2000/svg"
	xmlns:xlink="http://www.w3.org/1999/xlink" x="0px" y="0px" viewBox="0 0 32 32" style="enable-background:new 0 0 32 32;" xml:space="preserve">
	<style type="text/css">
	.st0{fill:#212121;}
	</style>
	<g>
		<g>
			<polygon class="st0" points="8.7,11.6 16.2,8.4 23.7,11.6 16.2,15.2 		"/>
		</g>
		<g>
			<path class="st0" d="M16.2,19.6l-7.8-4c-0.4-0.2-0.5-0.6-0.3-1c0.2-0.4,0.6-0.5,1-0.3l7.2,3.7l6.7-3.3c0.4-0.2,0.8,0,1,0.3
			c0.2,0.4,0,0.8-0.3,1L16.2,19.6z"/>
		</g>
		<g>
			<path class="st0" d="M16.2,23.6l-7.8-4c-0.4-0.2-0.5-0.6-0.3-1c0.2-0.4,0.6-0.5,1-0.3l7.2,3.7l6.7-3.3c0.4-0.2,0.8,0,1,0.3
			c0.2,0.4,0,0.8-0.3,1L16.2,23.6z"/>
		</g>
	</g>
</svg>
