<?xml version="1.0" encoding="utf-8"?>
<!-- Generator: Adobe Illustrator 20.0.0, SVG Export Plug-In . SVG Version: 6.00 Build 0)  -->
<svg version="1.1" id="Layer_1" xmlns="http://www.w3.org/2000/svg" xmlns:xlink="http://www.w3.org/1999/xlink" x="0px" y="0px"
	 viewBox="0 0 24 20" style="enable-background:new 0 0 24 20;" xml:space="preserve">
<style type="text/css">
	.st0{fill:#FFFFFF;}
</style>
<polygon class="st0" points="9,0 9,13 4,13 4,12.4 6,12.4 6,11.4 4,11.4 4,10.4 7,10.4 7,9.4 4,9.4 4,8.4 6,8.4 6,7.4 4,7.4 4,6.4 
	7,6.4 7,5.4 4,5.4 4,4.4 6,4.4 6,3.4 4,3.4 4,2.4 7,2.4 7,1.4 4,1.4 4,0 "/>
<rect x="4" y="15" class="st0" width="5" height="5"/>
<rect x="4" y="15" class="st0" width="5" height="5"/>
<polygon class="st0" points="24,15 24,20 23.2,20 23.2,18 22.2,18 22.2,20 21.2,20 21.2,17 20.2,17 20.2,20 19.2,20 19.2,18 
	18.2,18 18.2,20 17.2,20 17.2,17 16.2,17 16.2,20 15.2,20 15.2,18 14.2,18 14.2,20 13.2,20 13.2,17 12.2,17 12.2,20 11,20 11,15 "/>
</svg>
