<!DOCTYPE svg PUBLIC "-//W3C//DTD SVG 1.1//EN" "http://www.w3.org/Graphics/SVG/1.1/DTD/svg11.dtd">
<!-- Uploaded to: SVG Repo, www.svgrepo.com, Transformed by: SVG Repo Mixer Tools -->
<svg fill="#ffffff" width="800px" height="800px" viewBox="0 0 35 35" data-name="Layer 2" id="a87383aa-ce93-4fa9-a039-07a2cfd83b2e" xmlns="http://www.w3.org/2000/svg" stroke="#ffffff">
<g id="SVGRepo_bgCarrier" stroke-width="0"/>
<g id="SVGRepo_tracerCarrier" stroke-linecap="round" stroke-linejoin="round"/>
<g id="SVGRepo_iconCarrier">
<path d="M13.739,26.47a13.11,13.11,0,1,1,13.11-13.11A13.125,13.125,0,0,1,13.739,26.47Zm0-23.72a10.61,10.61,0,1,0,10.61,10.61A10.622,10.622,0,0,0,13.739,2.75Z"/>
<path d="M33.121,34.75a1.246,1.246,0,0,1-.884-.366L20.858,23.005a1.25,1.25,0,0,1,1.768-1.768L34,32.616a1.25,1.25,0,0,1-.883,2.134Z"/>
<path d="M18.313,15.061H9.424a1.25,1.25,0,0,1,0-2.5h8.889a1.25,1.25,0,0,1,0,2.5Z"/>
</g>
</svg>