<?xml version="1.0" encoding="utf-8"?>
<!-- Generator: Adobe Illustrator 20.0.0, SVG Export Plug-In . SVG Version: 6.00 Build 0)  -->
<svg version="1.1" id="Layer_1" xmlns="http://www.w3.org/2000/svg" xmlns:xlink="http://www.w3.org/1999/xlink" x="0px" y="0px"
	 viewBox="0 0 32 32" style="enable-background:new 0 0 32 32;" xml:space="preserve">
<style type="text/css">
	.st0{fill:#3884D0;}
</style>
<path class="st0" d="M23.5,23.3L23.5,23.3c-0.3,0.3-0.6,0.3-0.9,0l-5.6-5.6c-0.3-0.3-0.3-0.6,0-0.9l0,0c0.3-0.3,0.6-0.3,0.9,0
	l5.6,5.6C23.8,22.6,23.8,23,23.5,23.3z"/>
<path class="st0" d="M14.4,8.4c-3,0-5.5,2.5-5.5,5.5c0,3,2.5,5.5,5.5,5.5c3,0,5.5-2.5,5.5-5.5C19.9,10.8,17.5,8.4,14.4,8.4z
	 M14.4,17.7c-2.1,0-3.9-1.7-3.9-3.9s1.7-3.9,3.9-3.9c2.2,0,3.9,1.7,3.9,3.9S16.6,17.7,14.4,17.7z"/>
<g>
	<path class="st0" d="M15.1,11.2v2.2h2.1v0.9h-2.1v2.2h-1v-2.2H12v-0.9h2.1v-2.2H15.1z"/>
</g>
</svg>
